<?xml version="1.0" encoding="utf-8"?>
<!-- Generator: Adobe Illustrator 24.0.0, SVG Export Plug-In . SVG Version: 6.00 Build 0)  -->
<svg version="1.1" id="Discord-Logo" xmlns="http://www.w3.org/2000/svg" xmlns:xlink="http://www.w3.org/1999/xlink" x="0px"
	 y="0px" viewBox="0 0 730 189" style="enable-background:new 0 0 730 189;" xml:space="preserve">
<style type="text/css">
	.st0{stroke:#FFFFFF;stroke-miterlimit:10;}
	.st1{fill:#FFFFFF;}
</style>
<path class="st0" d="M701.8,189H30.2C14.6,189,2,176.4,2,160.8V28.2C2,12.6,14.6,0,30.2,0h671.6C717.3,0,730,12.6,730,28.2v132.6
	C730,176.4,717.3,189,701.8,189z"/>
<path id="Discord-Logo-White" class="st1" d="M129.1,46c-1.2,2.2-2.3,4.5-3.4,6.8c-9.6-1.4-19.4-1.4-29,0c-1-2.3-2.1-4.6-3.4-6.8
	c-9,1.5-17.8,4.2-26.1,8.1c-16.5,24.5-21,48.3-18.8,71.8C58.2,133,69,138.5,80.6,142c2.6-3.5,4.9-7.2,6.9-11.1
	c-3.7-1.4-7.3-3.1-10.8-5.2c0.9-0.7,1.8-1.3,2.7-2c20.3,9.5,43.8,9.5,64.1,0c0.9,0.7,1.7,1.4,2.7,2c-3.5,2-7.1,3.8-10.8,5.2
	c2,3.9,4.3,7.6,6.9,11.1c11.5-3.5,22.4-8.9,32.1-16.1c2.6-27.3-4.5-50.9-18.8-71.9C147,50.3,138.2,47.6,129.1,46L129.1,46z
	 M90.3,111.4c-6.2,0-11.4-5.7-11.4-12.7c0-7,5-12.7,11.4-12.7c6.4,0,11.5,5.7,11.4,12.7C101.5,105.7,96.6,111.4,90.3,111.4z
	 M132.3,111.4c-6.3,0-11.4-5.7-11.4-12.7c0-7,5-12.7,11.4-12.7c6.4,0,11.5,5.7,11.4,12.7C143.6,105.7,138.7,111.4,132.3,111.4z
	 M216.8,59.3h37.7c9.1,0,16.8,1.4,23.1,4.3c5.8,2.4,10.7,6.6,14.1,11.8c3.2,5.2,4.8,11.2,4.7,17.3c0.1,6.1-1.6,12.2-4.9,17.4
	c-3.6,5.5-8.8,9.8-14.9,12.3c-6.7,3-14.9,4.6-24.8,4.5h-35L216.8,59.3L216.8,59.3z M251.4,109.8c6.1,0,10.8-1.5,14.1-4.6
	c3.4-3.3,5-7.7,4.9-12.5c0-4.4-1.4-8.6-4.4-11.7c-2.9-2.9-7.4-4.4-13.3-4.4H241v33.2H251.4L251.4,109.8z M352.8,126.9
	c-5-1.2-9.7-3.2-14.1-5.9v-16c3.8,2.8,8.1,4.8,12.7,6c5,1.5,10.2,2.3,15.4,2.4c1.8,0.1,3.6-0.2,5.3-0.9c1.2-0.6,1.8-1.4,1.8-2.2
	c0-0.9-0.3-1.8-1-2.4c-1.1-0.8-2.4-1.4-3.8-1.6l-11.6-2.6c-6.6-1.5-11.4-3.7-14.2-6.4c-2.8-2.9-4.3-6.8-4.1-10.8
	c0-3.6,1.3-7.1,3.7-9.8c2.9-3,6.5-5.2,10.4-6.4c5.1-1.6,10.5-2.4,15.9-2.3c5,0,10,0.5,14.9,1.7c3.9,0.9,7.7,2.4,11.2,4.4v15.2
	c-3.3-1.9-6.8-3.4-10.5-4.3c-4-1.1-8.1-1.6-12.2-1.6c-6.1,0-9.1,1-9.1,3.1c0,0.9,0.5,1.8,1.4,2.2c1.7,0.7,3.4,1.2,5.2,1.5l9.7,1.7
	c6.3,1.1,11,3,14,5.8c3.1,2.8,4.6,6.8,4.6,12.1c0.1,5.7-2.8,11-7.7,14c-5.1,3.4-12.4,5.1-21.8,5.1
	C363.5,128.9,358.1,128.2,352.8,126.9L352.8,126.9z M421.2,124.8c-5.2-2.4-9.5-6.2-12.5-11c-2.8-4.7-4.2-10.2-4.1-15.7
	c-0.1-5.5,1.4-10.9,4.3-15.6c3.1-4.8,7.5-8.5,12.8-10.8c6.3-2.8,13.2-4.1,20.1-3.9c9.7,0,17.7,2,24.1,6.1v17.7
	c-2.4-1.6-5.1-2.9-7.9-3.8c-3.1-1-6.4-1.5-9.7-1.4c-6,0-10.7,1.1-14.1,3.3c-4.8,2.7-6.5,8.7-3.8,13.4c0.9,1.6,2.1,2.8,3.7,3.7
	c3.3,2.2,8.1,3.3,14.3,3.3c3.2,0,6.4-0.5,9.5-1.4c2.8-0.8,5.5-2,8.1-3.4v17.1c-7.5,4.4-16,6.6-24.6,6.4
	C434.4,129.1,427.5,127.7,421.2,124.8L421.2,124.8z M489.9,124.8c-5.2-2.4-9.7-6.2-12.8-11c-2.9-4.7-4.5-10.2-4.4-15.8
	c-0.1-5.5,1.4-10.9,4.4-15.5c3.1-4.7,7.5-8.4,12.7-10.7c12.7-5.2,26.9-5.2,39.6,0c5.2,2.3,9.5,5.9,12.7,10.6
	c2.9,4.7,4.4,10.1,4.3,15.6c0.1,5.6-1.4,11-4.3,15.8c-3.1,4.8-7.5,8.7-12.7,11C516.8,130.2,502.5,130.2,489.9,124.8L489.9,124.8
	L489.9,124.8z M519.3,107.7c2.4-2.5,3.7-5.9,3.5-9.3c0.2-3.4-1.1-6.8-3.5-9.2c-2.6-2.4-6.1-3.6-9.7-3.4c-3.6-0.2-7,1.1-9.7,3.4
	c-2.4,2.4-3.7,5.8-3.5,9.2c-0.2,3.5,1.1,6.8,3.5,9.3c2.6,2.4,6.1,3.7,9.7,3.5C513.2,111.4,516.7,110.2,519.3,107.7z M604.6,71.5
	v20.9c-2.9-1.7-6.2-2.6-9.6-2.4c-5.2,0-9.1,1.6-11.9,4.7s-4.1,8-4.1,14.5V127h-23.7V70.4h23.2v18c1.3-6.6,3.4-11.4,6.2-14.5
	c2.8-3.1,6.9-4.7,11-4.7C598.9,69.1,601.9,69.9,604.6,71.5z M683.3,57.4V127h-23.7v-12.7c-1.8,4.5-5,8.3-9.1,10.9
	c-4.6,2.6-9.8,3.9-15.1,3.8c-5,0.1-9.8-1.2-14-3.9c-4-2.6-7.3-6.3-9.3-10.7c-2.2-4.8-3.3-10.1-3.2-15.4c-0.2-5.5,1-11,3.4-15.9
	c2.2-4.5,5.7-8.4,10-11c4.4-2.7,9.5-4,14.7-4c11.3,0,18.8,4.9,22.7,14.7V57.4H683.3z M656.1,107.4c2.4-2.4,3.8-5.7,3.6-9.1
	c0.1-3.3-1.2-6.5-3.6-8.8c-5.6-4.5-13.6-4.5-19.2,0c-2.4,2.3-3.7,5.6-3.6,8.9c-0.1,3.4,1.2,6.7,3.6,9c2.6,2.4,6,3.6,9.5,3.5
	C650,111,653.5,109.8,656.1,107.4L656.1,107.4z M316.3,55.2c6.5,0,11.8,4.7,11.8,10.6c0,5.9-5.3,10.6-11.8,10.6s-11.8-4.7-11.8-10.6
	C304.5,60,309.8,55.2,316.3,55.2z M304.5,83.8c7.6,3.2,16.1,3.2,23.6,0v43.5h-23.6C304.5,127.3,304.5,83.8,304.5,83.8z"/>
</svg>
